<?xml version="1.0" encoding="UTF-8" standalone="no"?>
<svg
   xmlns:dc="http://purl.org/dc/elements/1.1/"
   xmlns:cc="http://creativecommons.org/ns#"
   xmlns:rdf="http://www.w3.org/1999/02/22-rdf-syntax-ns#"
   xmlns:svg="http://www.w3.org/2000/svg"
   xmlns="http://www.w3.org/2000/svg"
   xmlns:sodipodi="http://sodipodi.sourceforge.net/DTD/sodipodi-0.dtd"
   xmlns:inkscape="http://www.inkscape.org/namespaces/inkscape"
   id="b8c64dc2-e86a-49bc-92bf-164106d9e7fb"
   data-name="Layer 1"
   width="887.87284"
   height="569.68008"
   viewBox="0 0 887.87284 569.68008"
   version="1.1"
   sodipodi:docname="front-end.svg"
   inkscape:version="0.92.5 (2060ec1f9f, 2020-04-08)">
  <metadata
     id="metadata99">
    <rdf:RDF>
      <cc:Work
         rdf:about="">
        <dc:format>image/svg+xml</dc:format>
        <dc:type
           rdf:resource="http://purl.org/dc/dcmitype/StillImage" />
        <dc:title>proud_coder</dc:title>
      </cc:Work>
    </rdf:RDF>
  </metadata>
  <defs
     id="defs97" />
  <sodipodi:namedview
     pagecolor="#ffffff"
     bordercolor="#666666"
     borderopacity="1"
     objecttolerance="10"
     gridtolerance="10"
     guidetolerance="10"
     inkscape:pageopacity="0"
     inkscape:pageshadow="2"
     inkscape:window-width="1366"
     inkscape:window-height="694"
     id="namedview95"
     showgrid="false"
     inkscape:zoom="0.69829817"
     inkscape:cx="341.81995"
     inkscape:cy="320.89952"
     inkscape:window-x="0"
     inkscape:window-y="0"
     inkscape:window-maximized="1"
     inkscape:current-layer="b8c64dc2-e86a-49bc-92bf-164106d9e7fb" />
  <title
     id="title2">proud_coder</title>
  <rect
     x="-1.2883359"
     y="0.5024187"
     width="889.16119"
     height="569.02594"
     id="rect4"
     style="fill:#e6e6e6;stroke-width:1.45360506" />
  <rect
     x="24.137007"
     y="71.692848"
     width="838.31042"
     height="462.82452"
     id="rect6"
     style="fill:#ffffff;stroke-width:1.45177484" />
  <rect
     x="-1.6679842"
     width="889.16119"
     height="37.651138"
     id="rect8"
     y="0"
     style="fill:#6c63ff;stroke-width:1.45177484" />
  <ellipse
     cx="26.403225"
     cy="19.249256"
     id="circle10"
     rx="7.0012732"
     ry="6.9783497"
     style="fill:#ffffff;stroke-width:1.45177484" />
  <ellipse
     cx="52.978298"
     cy="19.249256"
     id="circle12"
     rx="7.0012732"
     ry="6.9783497"
     style="fill:#ffffff;stroke-width:1.45177484" />
  <ellipse
     cx="79.553368"
     cy="19.249256"
     id="circle14"
     rx="7.0012732"
     ry="6.9783497"
     style="fill:#ffffff;stroke-width:1.45177484" />
  <path
     d="M 625.24334,115.04234 H 352.31671 a 2.4224371,2.4145056 0 0 1 0,-4.78761 h 272.92663 a 2.4224371,2.4145056 0 0 1 0,4.78761 z"
     id="path16"
     inkscape:connector-curvature="0"
     style="fill:#cccccc;stroke-width:1.45177484" />
  <path
     d="M 436.13214,141.37416 H 262.60472 a 2.4224371,2.4145056 0 0 1 0,-4.7876 h 173.52742 a 2.4224371,2.4145056 0 0 1 0,4.7876 z"
     id="path18"
     inkscape:connector-curvature="0"
     style="fill:#cccccc;stroke-width:1.45177484" />
  <path
     d="M 625.24334,141.85294 H 451.71591 a 2.4224371,2.4145056 0 0 1 0,-4.7876 h 173.5275 a 2.4224371,2.4145056 0 0 1 0,4.7876 z"
     id="path20"
     inkscape:connector-curvature="0"
     style="fill:#cccccc;stroke-width:1.45177484" />
  <path
     d="M 436.55332,167.70602 H 263.02591 a 2.4224371,2.4145056 0 0 1 0,-4.7876 h 173.52741 a 2.4224371,2.4145056 0 0 1 0,4.7876 z"
     id="path22"
     inkscape:connector-curvature="0"
     style="fill:#cccccc;stroke-width:1.45177484" />
  <path
     d="M 436.9745,194.03787 H 263.44709 a 2.4224371,2.4145056 0 0 1 0,-4.7876 H 436.9745 a 2.4224371,2.4145056 0 0 1 0,4.7876 z"
     id="path24"
     inkscape:connector-curvature="0"
     style="fill:#cccccc;stroke-width:1.45177484" />
  <path
     d="m 515.73573,167.70602 h -49.69959 a 2.4224371,2.4145056 0 0 1 0,-4.7876 h 49.69959 a 2.4224371,2.4145056 0 0 1 0,4.7876 z"
     id="path26"
     inkscape:connector-curvature="0"
     style="fill:#cccccc;stroke-width:1.45177484" />
  <path
     d="m 515.73573,193.55911 h -49.69959 a 2.4224371,2.4145056 0 0 1 0,-4.78761 h 49.69959 a 2.4224371,2.4145056 0 0 1 0,4.78761 z"
     id="path28"
     inkscape:connector-curvature="0"
     style="fill:#cccccc;stroke-width:1.45177484" />
  <path
     d="m 599.12999,193.55911 h -49.69961 a 2.4224371,2.4145056 0 0 1 0,-4.78761 h 49.69961 a 2.4224371,2.4145056 0 0 1 0,4.78761 z"
     id="path30"
     inkscape:connector-curvature="0"
     style="fill:#cccccc;stroke-width:1.45177484" />
  <path
     d="m 311.04077,115.04234 h -49.69961 a 2.4224371,2.4145056 0 0 1 0,-4.78761 h 49.69961 a 2.4224371,2.4145056 0 0 1 0,4.78761 z"
     id="path32"
     inkscape:connector-curvature="0"
     style="fill:#cccccc;stroke-width:1.45177484" />
  <path
     d="M 435.50036,416.95996 H 261.97294 a 2.4224371,2.4145056 0 0 1 0,-4.7876 h 173.5275 a 2.4224371,2.4145056 0 0 1 0,4.7876 z"
     id="path34"
     inkscape:connector-curvature="0"
     style="fill:#cccccc;stroke-width:1.45177484" />
  <path
     d="M 434.658,469.62365 H 261.13057 a 2.4224371,2.4145056 0 0 1 0,-4.78761 h 173.5275 a 2.4224371,2.4145056 0 0 1 0,4.78761 z"
     id="path36"
     inkscape:connector-curvature="0"
     style="fill:#cccccc;stroke-width:1.45177484" />
  <path
     d="M 435.07918,495.9555 H 261.55175 a 2.4224371,2.4145056 0 0 1 0,-4.78762 h 173.52751 a 2.4224371,2.4145056 0 0 1 0,4.78762 z"
     id="path38"
     inkscape:connector-curvature="0"
     style="fill:#cccccc;stroke-width:1.45177484" />
  <path
     d="m 509.2074,470.10242 h -49.6996 a 2.4224371,2.4145056 0 0 1 0,-4.78762 h 49.6996 a 2.4224371,2.4145056 0 0 1 0,4.78762 z"
     id="path40"
     inkscape:connector-curvature="0"
     style="fill:#cccccc;stroke-width:1.45177484" />
  <path
     d="m 509.2074,495.9555 h -49.6996 a 2.4224371,2.4145056 0 0 1 0,-4.78762 h 49.6996 a 2.4224371,2.4145056 0 0 1 0,4.78762 z"
     id="path42"
     inkscape:connector-curvature="0"
     style="fill:#cccccc;stroke-width:1.45177484" />
  <path
     d="m 592.60165,470.10242 h -49.69961 a 2.4224371,2.4145056 0 0 1 0,-4.78762 h 49.69961 a 2.4224371,2.4145056 0 0 1 0,4.78762 z"
     id="path44"
     inkscape:connector-curvature="0"
     style="fill:#cccccc;stroke-width:1.45177484" />
  <path
     d="M 625.45393,443.29181 H 352.5273 a 2.4224371,2.4145056 0 0 1 0,-4.78761 h 272.92663 a 2.4224371,2.4145056 0 0 1 0,4.78761 z"
     id="path46"
     inkscape:connector-curvature="0"
     style="fill:#cccccc;stroke-width:1.45177484" />
  <path
     d="m 311.25136,443.29181 h -49.69961 a 2.4224371,2.4145056 0 0 1 0,-4.78761 h 49.69961 a 2.4224371,2.4145056 0 0 1 0,4.78761 z"
     id="path48"
     inkscape:connector-curvature="0"
     style="fill:#cccccc;stroke-width:1.45177484" />
  <polygon
     points="501.622,208.985 547.965,254.748 558.392,244.321 523.345,209.274 558.681,173.938 547.965,163.221 "
     id="polygon50"
     transform="matrix(1.4541573,0,0,1.4493962,-403.23396,0)"
     style="fill:#e6e6e6" />
  <polygon
     points="662.662,208.985 616.32,254.748 605.893,244.321 640.939,209.274 605.603,173.938 616.32,163.221 "
     id="polygon52"
     transform="matrix(1.4541573,0,0,1.4493962,-403.23396,0)"
     style="fill:#e6e6e6" />
  <polygon
     points="501.622,208.985 547.965,254.748 558.392,244.321 523.345,209.274 558.681,173.938 547.965,163.221 "
     id="polygon54"
     transform="matrix(1.4541573,0,0,1.4493962,-403.23396,0)"
     style="fill:#6c63ff" />
  <polygon
     points="662.662,208.985 616.32,254.748 605.893,244.321 640.939,209.274 605.603,173.938 616.32,163.221 "
     id="polygon56"
     transform="matrix(1.4541573,0,0,1.4493962,-403.23396,0)"
     style="fill:#6c63ff" />
</svg>
